<?xml version="1.0" encoding="utf-8"?>
<!-- Generator: Adobe Illustrator 27.3.1, SVG Export Plug-In . SVG Version: 6.00 Build 0)  -->
<svg version="1.1" id="レイヤー_1" xmlns="http://www.w3.org/2000/svg" xmlns:xlink="http://www.w3.org/1999/xlink" x="0px"
	 y="0px" viewBox="0 0 240.9 45.8" style="enable-background:new 0 0 240.9 45.8;" xml:space="preserve">
<style type="text/css">
	.st0{fill:#004E52;}
	.st1{fill:#FFFFFF;}
</style>
<g>
	<g>
		<path class="st0" d="M132,43.2C132,43.2,132,43.2,132,43.2c-0.1,0.1-0.1,0.1-0.2,0.1h-2c-0.1,0-0.2,0-0.3-0.1l-0.8-1.2
			c0,0-0.1,0-0.1,0c-0.6,0.5-1.2,0.9-1.9,1.2c-0.7,0.3-1.4,0.4-2.2,0.4c-1.4,0-2.4-0.4-3.2-1.1c-0.8-0.7-1.2-1.7-1.2-3.1
			c0-1.1,0.3-2.1,0.8-2.9c0.5-0.8,1.2-1.5,2.1-2.2c0,0,0.1-0.1,0-0.1c-0.6-0.8-1-1.5-1.3-1.9c-0.3-0.5-0.5-0.9-0.5-1.2
			c-0.1-0.3-0.1-0.7-0.1-1.1c0-1.2,0.4-2.2,1.1-2.9c0.7-0.7,1.7-1.1,2.8-1.1c1.2,0,2.2,0.4,2.9,1.1c0.8,0.7,1.1,1.7,1.1,2.9
			c0,1-0.3,1.9-0.8,2.6c-0.5,0.7-1.2,1.5-2.2,2.2c0,0-0.1,0.1,0,0.1l1.2,1.7l1.4,2c0,0.1,0.1,0.1,0.1,0c0-0.1,0.1-0.2,0.3-0.4
			c0.4-0.7,0.7-1.2,0.9-1.5c0-0.1,0.1-0.1,0.1-0.1c0.1,0,0.1,0,0.2,0l1.4,0.8c0.1,0.1,0.2,0.2,0.1,0.3c-0.5,0.9-1.1,1.8-1.7,2.7
			c0,0,0,0.1,0,0.1l2,2.6C132,43.1,132,43.1,132,43.2z M127.2,40.2c0,0,0.1-0.1,0-0.1l-2.9-4c0,0-0.1,0-0.1,0c-0.6,0.5-1,1-1.3,1.5
			c-0.3,0.5-0.5,1-0.5,1.6c0,0.7,0.2,1.2,0.6,1.6c0.4,0.4,0.9,0.6,1.7,0.6C125.5,41.5,126.4,41.1,127.2,40.2z M123.8,28.5
			c-0.3,0.4-0.5,0.8-0.5,1.4c0,0.4,0.1,0.8,0.2,1.1c0.1,0.4,0.5,0.9,1,1.7c0,0.1,0.1,0.1,0.1,0c0.6-0.5,1.1-1,1.4-1.4
			c0.3-0.5,0.5-1,0.5-1.5c0-0.6-0.1-1-0.4-1.4c-0.3-0.4-0.7-0.5-1.2-0.5C124.5,28,124.1,28.2,123.8,28.5z"/>
		<path class="st0" d="M142.1,27.4c0.8,0.9,1.2,2.1,1.2,3.6c0,1.4-0.4,2.6-1.1,3.5c-0.8,0.9-1.8,1.3-3,1.3h-2.3
			c-0.1,0-0.1,0-0.1,0.1v7.2c0,0.2-0.1,0.2-0.2,0.2h-1.9c-0.2,0-0.2-0.1-0.2-0.2V26.3c0-0.2,0.1-0.2,0.2-0.2h4.4
			C140.3,26,141.3,26.5,142.1,27.4z M140.3,33.1c0.4-0.5,0.6-1.2,0.6-2.1c0-0.9-0.2-1.6-0.6-2.2c-0.4-0.5-1-0.8-1.6-0.8h-1.8
			c-0.1,0-0.1,0-0.1,0.1v5.7c0,0.1,0,0.1,0.1,0.1h1.8C139.3,33.9,139.9,33.7,140.3,33.1z"/>
		<path class="st0" d="M151.4,43.1l-2.3-7.4c0,0,0-0.1-0.1-0.1h-1.7c-0.1,0-0.1,0-0.1,0.1v7.3c0,0.2-0.1,0.2-0.2,0.2h-1.9
			c-0.2,0-0.2-0.1-0.2-0.2V26.3c0-0.2,0.1-0.2,0.2-0.2h4.4c0.8,0,1.6,0.2,2.2,0.6c0.6,0.4,1.1,1,1.5,1.7c0.4,0.7,0.5,1.6,0.5,2.6
			c0,1-0.2,1.9-0.6,2.7c-0.4,0.8-1,1.3-1.8,1.7c0,0-0.1,0.1,0,0.1l2.5,7.6l0,0.1c0,0.1-0.1,0.2-0.2,0.2h-1.9
			C151.5,43.3,151.4,43.3,151.4,43.1z M147.2,28.2v5.5c0,0.1,0,0.1,0.1,0.1h1.8c0.7,0,1.2-0.3,1.6-0.8c0.4-0.5,0.6-1.2,0.6-2.1
			c0-0.9-0.2-1.6-0.6-2.1c-0.4-0.5-1-0.8-1.6-0.8L147.2,28.2C147.2,28.1,147.2,28.1,147.2,28.2z"/>
		<path class="st0" d="M156.7,42.3c-0.8-0.8-1.2-1.9-1.2-3.3v-8.6c0-1.4,0.4-2.5,1.2-3.3c0.8-0.8,1.9-1.2,3.3-1.2
			c1.4,0,2.5,0.4,3.3,1.2c0.8,0.8,1.2,1.9,1.2,3.3V39c0,1.4-0.4,2.5-1.2,3.3c-0.8,0.8-1.9,1.2-3.3,1.2
			C158.6,43.5,157.5,43.1,156.7,42.3z M161.5,40.8c0.4-0.4,0.6-1,0.6-1.7v-8.8c0-0.7-0.2-1.3-0.6-1.7c-0.4-0.4-0.9-0.7-1.6-0.7
			c-0.6,0-1.2,0.2-1.5,0.7c-0.4,0.4-0.6,1-0.6,1.7v8.8c0,0.7,0.2,1.3,0.6,1.7c0.4,0.4,0.9,0.7,1.5,0.7
			C160.6,41.5,161.1,41.3,161.5,40.8z"/>
		<path class="st0" d="M167,43.1V26.3c0-0.2,0.1-0.2,0.2-0.2h4.1c1.4,0,2.5,0.4,3.3,1.3c0.8,0.8,1.2,2,1.2,3.4v8
			c0,1.4-0.4,2.6-1.2,3.4c-0.8,0.8-1.9,1.3-3.3,1.3h-4.1C167.1,43.3,167,43.2,167,43.1z M169.5,41.3l1.8,0c0.6,0,1.1-0.2,1.5-0.7
			c0.4-0.5,0.6-1.1,0.6-2v-7.7c0-0.8-0.2-1.5-0.6-2c-0.4-0.5-0.9-0.7-1.5-0.7h-1.8c-0.1,0-0.1,0-0.1,0.1L169.5,41.3
			C169.4,41.2,169.4,41.3,169.5,41.3z"/>
		<path class="st0" d="M179.5,42.2c-0.8-0.9-1.2-2.1-1.2-3.5V26.3c0-0.2,0.1-0.2,0.2-0.2h1.9c0.2,0,0.2,0.1,0.2,0.2v12.6
			c0,0.8,0.2,1.4,0.6,1.9c0.4,0.5,0.9,0.7,1.5,0.7c0.6,0,1.2-0.2,1.5-0.7c0.4-0.5,0.6-1.1,0.6-1.9V26.3c0-0.2,0.1-0.2,0.2-0.2h1.9
			c0.2,0,0.2,0.1,0.2,0.2v12.3c0,1.5-0.4,2.6-1.2,3.5c-0.8,0.9-1.9,1.3-3.3,1.3S180.3,43.1,179.5,42.2z"/>
		<path class="st0" d="M190.9,42.3c-0.8-0.8-1.2-1.9-1.2-3.2v-8.8c0-1.4,0.4-2.4,1.2-3.2c0.8-0.8,1.9-1.2,3.2-1.2
			c1.4,0,2.4,0.4,3.2,1.2c0.8,0.8,1.2,1.9,1.2,3.2v0.4c0,0.2-0.1,0.2-0.2,0.2l-1.9,0.1c-0.2,0-0.2-0.1-0.2-0.2v-0.6
			c0-0.7-0.2-1.2-0.6-1.6c-0.4-0.4-0.9-0.6-1.5-0.6c-0.6,0-1.1,0.2-1.5,0.6c-0.4,0.4-0.6,1-0.6,1.6v9.1c0,0.7,0.2,1.2,0.6,1.6
			c0.4,0.4,0.9,0.6,1.5,0.6c0.6,0,1.1-0.2,1.5-0.6c0.4-0.4,0.6-1,0.6-1.6v-0.6c0-0.2,0.1-0.2,0.2-0.2l1.9,0.1c0.2,0,0.2,0.1,0.2,0.2
			v0.4c0,1.4-0.4,2.4-1.2,3.2c-0.8,0.8-1.9,1.2-3.2,1.2C192.7,43.5,191.7,43.1,190.9,42.3z"/>
		<path class="st0" d="M209.5,26.3v1.6c0,0.2-0.1,0.2-0.2,0.2H206c-0.1,0-0.1,0-0.1,0.1v14.9c0,0.2-0.1,0.2-0.2,0.2h-1.9
			c-0.2,0-0.2-0.1-0.2-0.2V28.2c0-0.1,0-0.1-0.1-0.1h-3.1c-0.2,0-0.2-0.1-0.2-0.2v-1.6c0-0.2,0.1-0.2,0.2-0.2h8.9
			C209.4,26,209.5,26.1,209.5,26.3z"/>
		<path class="st0" d="M211.6,43.1V26.3c0-0.2,0.1-0.2,0.2-0.2h1.9c0.2,0,0.2,0.1,0.2,0.2v16.8c0,0.2-0.1,0.2-0.2,0.2h-1.9
			C211.7,43.3,211.6,43.2,211.6,43.1z"/>
		<path class="st0" d="M217.7,42.3c-0.8-0.8-1.2-1.9-1.2-3.3v-8.6c0-1.4,0.4-2.5,1.2-3.3c0.8-0.8,1.9-1.2,3.3-1.2
			c1.4,0,2.5,0.4,3.3,1.2c0.8,0.8,1.2,1.9,1.2,3.3V39c0,1.4-0.4,2.5-1.2,3.3c-0.8,0.8-1.9,1.2-3.3,1.2
			C219.6,43.5,218.5,43.1,217.7,42.3z M222.6,40.8c0.4-0.4,0.6-1,0.6-1.7v-8.8c0-0.7-0.2-1.3-0.6-1.7c-0.4-0.4-0.9-0.7-1.6-0.7
			c-0.6,0-1.2,0.2-1.5,0.7c-0.4,0.4-0.6,1-0.6,1.7v8.8c0,0.7,0.2,1.3,0.6,1.7c0.4,0.4,0.9,0.7,1.5,0.7
			C221.6,41.5,222.2,41.3,222.6,40.8z"/>
		<path class="st0" d="M235.2,26h1.9c0.2,0,0.2,0.1,0.2,0.2v16.8c0,0.2-0.1,0.2-0.2,0.2H235c-0.1,0-0.2-0.1-0.3-0.2l-4.2-11.3
			c0,0,0,0-0.1,0c0,0,0,0,0,0.1l0,11.2c0,0.2-0.1,0.2-0.2,0.2h-1.9c-0.2,0-0.2-0.1-0.2-0.2V26.3c0-0.2,0.1-0.2,0.2-0.2h2.1
			c0.1,0,0.2,0.1,0.3,0.2l4.2,11.3c0,0,0,0.1,0.1,0.1c0,0,0,0,0-0.1V26.3C235,26.1,235.1,26,235.2,26z"/>
	</g>
	<rect x="120" y="2.9" class="st0" width="118.5" height="19.8"/>
	<g>
		<path class="st1" d="M132.9,18.5l-1.5-5c0,0,0-0.1-0.1-0.1h-1.2c0,0-0.1,0-0.1,0.1v5c0,0.1-0.1,0.2-0.2,0.2h-1.3
			c-0.1,0-0.2-0.1-0.2-0.2V7.1c0-0.1,0.1-0.2,0.2-0.2h3c0.6,0,1.1,0.1,1.5,0.4c0.4,0.3,0.8,0.7,1,1.2c0.2,0.5,0.4,1.1,0.4,1.7
			c0,0.7-0.1,1.3-0.4,1.8c-0.3,0.5-0.7,0.9-1.2,1.1c0,0,0,0.1,0,0.1l1.7,5.2l0,0.1c0,0.1-0.1,0.1-0.2,0.1h-1.3
			C133,18.7,132.9,18.6,132.9,18.5z M130.1,8.4v3.8c0,0,0,0.1,0.1,0.1h1.2c0.5,0,0.8-0.2,1.1-0.5c0.3-0.4,0.4-0.8,0.4-1.4
			c0-0.6-0.1-1.1-0.4-1.4c-0.3-0.4-0.7-0.5-1.1-0.5L130.1,8.4C130.1,8.3,130.1,8.3,130.1,8.4z"/>
		<path class="st1" d="M149.9,8.3h-3.8c0,0-0.1,0-0.1,0.1V12c0,0,0,0.1,0.1,0.1h2.3c0.1,0,0.2,0.1,0.2,0.2v1.1
			c0,0.1-0.1,0.2-0.2,0.2h-2.3c0,0-0.1,0-0.1,0.1v3.7c0,0,0,0.1,0.1,0.1h3.8c0.1,0,0.2,0.1,0.2,0.2v1.1c0,0.1-0.1,0.2-0.2,0.2h-5.3
			c-0.1,0-0.2-0.1-0.2-0.2V7.1c0-0.1,0.1-0.2,0.2-0.2h5.3c0.1,0,0.2,0.1,0.2,0.2v1.1C150.1,8.2,150,8.3,149.9,8.3z"/>
		<path class="st1" d="M160.7,18c-0.6-0.6-0.8-1.3-0.8-2.2v-6c0-0.9,0.3-1.7,0.8-2.2c0.6-0.5,1.3-0.8,2.2-0.8c0.9,0,1.7,0.3,2.2,0.8
			c0.6,0.5,0.8,1.3,0.8,2.2V10c0,0.1-0.1,0.2-0.2,0.2l-1.3,0.1c-0.1,0-0.2-0.1-0.2-0.2V9.7c0-0.5-0.1-0.8-0.4-1.1
			c-0.3-0.3-0.6-0.4-1-0.4c-0.4,0-0.8,0.1-1,0.4c-0.3,0.3-0.4,0.7-0.4,1.1v6.2c0,0.5,0.1,0.8,0.4,1.1c0.3,0.3,0.6,0.4,1,0.4
			c0.4,0,0.8-0.1,1-0.4c0.3-0.3,0.4-0.6,0.4-1.1v-0.4c0-0.1,0.1-0.2,0.2-0.2l1.3,0.1c0.1,0,0.2,0.1,0.2,0.2v0.3
			c0,0.9-0.3,1.7-0.8,2.2c-0.6,0.6-1.3,0.8-2.2,0.8C162,18.8,161.3,18.5,160.7,18z"/>
		<path class="st1" d="M176.7,18c-0.6-0.6-0.8-1.3-0.8-2.2V9.8c0-0.9,0.3-1.7,0.8-2.2c0.6-0.6,1.3-0.8,2.2-0.8
			c0.9,0,1.7,0.3,2.2,0.8c0.6,0.6,0.8,1.3,0.8,2.2v5.9c0,0.9-0.3,1.7-0.8,2.2c-0.6,0.6-1.3,0.8-2.2,0.8
			C178,18.8,177.3,18.5,176.7,18z M180,17c0.3-0.3,0.4-0.7,0.4-1.2v-6c0-0.5-0.1-0.9-0.4-1.2c-0.3-0.3-0.6-0.4-1.1-0.4
			c-0.4,0-0.8,0.1-1.1,0.4c-0.3,0.3-0.4,0.7-0.4,1.2v6c0,0.5,0.1,0.9,0.4,1.2c0.3,0.3,0.6,0.4,1.1,0.4C179.4,17.4,179.8,17.2,180,17
			z"/>
		<path class="st1" d="M196.8,18.5l-1.5-5c0,0,0-0.1-0.1-0.1H194c0,0-0.1,0-0.1,0.1v5c0,0.1-0.1,0.2-0.2,0.2h-1.3
			c-0.1,0-0.2-0.1-0.2-0.2V7.1c0-0.1,0.1-0.2,0.2-0.2h3c0.6,0,1.1,0.1,1.5,0.4c0.4,0.3,0.8,0.7,1,1.2s0.4,1.1,0.4,1.7
			c0,0.7-0.1,1.3-0.4,1.8c-0.3,0.5-0.7,0.9-1.2,1.1c0,0,0,0.1,0,0.1l1.7,5.2l0,0.1c0,0.1-0.1,0.1-0.2,0.1H197
			C196.9,18.7,196.8,18.6,196.8,18.5z M193.9,8.4v3.8c0,0,0,0.1,0.1,0.1h1.2c0.5,0,0.8-0.2,1.1-0.5c0.3-0.4,0.4-0.8,0.4-1.4
			c0-0.6-0.1-1.1-0.4-1.4c-0.3-0.4-0.7-0.5-1.1-0.5L193.9,8.4C194,8.3,193.9,8.3,193.9,8.4z"/>
		<path class="st1" d="M208.3,18.5V7.1c0-0.1,0.1-0.2,0.2-0.2h2.8c0.9,0,1.7,0.3,2.2,0.9c0.5,0.6,0.8,1.3,0.8,2.3v5.4
			c0,1-0.3,1.7-0.8,2.3c-0.5,0.6-1.3,0.9-2.2,0.9h-2.8C208.4,18.7,208.3,18.6,208.3,18.5z M210,17.3l1.2,0c0.4,0,0.8-0.2,1-0.5
			c0.3-0.3,0.4-0.8,0.4-1.4v-5.2c0-0.6-0.1-1-0.4-1.4c-0.3-0.3-0.6-0.5-1-0.5H210c0,0-0.1,0-0.1,0.1L210,17.3
			C210,17.2,210,17.3,210,17.3z"/>
		<path class="st1" d="M225,18c-0.5-0.6-0.8-1.3-0.8-2.2v-0.4c0-0.1,0.1-0.2,0.2-0.2h1.2c0.1,0,0.2,0.1,0.2,0.2v0.4
			c0,0.5,0.1,0.9,0.4,1.2c0.3,0.3,0.6,0.5,1,0.5c0.4,0,0.7-0.1,1-0.4c0.3-0.3,0.4-0.7,0.4-1.2c0-0.3-0.1-0.6-0.2-0.9
			c-0.1-0.2-0.3-0.5-0.6-0.7c-0.2-0.2-0.6-0.5-1.1-0.9c-0.6-0.4-1-0.8-1.3-1.1c-0.3-0.3-0.6-0.7-0.8-1.1c-0.2-0.4-0.3-0.9-0.3-1.5
			c0-0.9,0.3-1.6,0.8-2.2c0.5-0.5,1.2-0.8,2.1-0.8c0.9,0,1.6,0.3,2.2,0.9c0.5,0.6,0.8,1.3,0.8,2.3v0.4c0,0.1-0.1,0.2-0.2,0.2h-1.2
			c-0.1,0-0.2-0.1-0.2-0.2V9.8c0-0.5-0.1-0.9-0.4-1.2c-0.3-0.3-0.6-0.5-1-0.5c-0.4,0-0.7,0.1-1,0.4c-0.2,0.3-0.4,0.7-0.4,1.2
			c0,0.4,0.1,0.8,0.4,1.1c0.2,0.3,0.7,0.7,1.4,1.2c0.7,0.5,1.2,0.9,1.5,1.2c0.3,0.3,0.6,0.7,0.8,1c0.2,0.4,0.3,0.8,0.3,1.3
			c0,0.9-0.3,1.7-0.8,2.3c-0.5,0.6-1.3,0.8-2.2,0.8C226.3,18.8,225.6,18.5,225,18z"/>
	</g>
	<g>
		<path class="st0" d="M31.3,31.4c0,7.7-5.5,12.3-15.2,12.3c-4.6,0-9.4-1.2-12.6-3c-0.8-0.4-1.1-0.7-1.1-1.2c0-0.3,0.1-0.6,0.3-1.1
			l2.4-5.3C5.5,32.4,5.7,32,6,32c0.3,0,0.6,0.2,1.1,0.5c2.8,2,6.6,3,9.6,3c3.3,0,5.3-1.2,5.3-3.3c0-2.4-3.3-3.8-7.8-5.5
			c-5.1-2-11-4.9-11-11.9c0-7.6,6-12,15.3-12c3.9,0,8,1,10.8,2.3c0.8,0.4,1.1,0.7,1.1,1.1c0,0.3-0.1,0.6-0.3,1l-2.2,5.7
			c-0.3,0.8-0.5,1.1-0.9,1.1c-0.3,0-0.5-0.2-1-0.5c-2.3-1.4-5.6-2.3-8.4-2.3c-3.7,0-5.1,1.4-5.1,3c0,2,2.9,3.3,6.2,4.6
			C24.5,21.4,31.3,24.2,31.3,31.4z"/>
		<path class="st0" d="M75.5,23.3c0,13.2-9.4,20.7-20.4,20.7c-13.3,0-19.5-10.7-19.5-20.1c0-12.9,8.9-20.5,20.4-20.5
			C69.4,3.3,75.5,13.9,75.5,23.3z M45,23.9c0,5.5,2.9,11.4,10.4,11.4c6,0,10.6-4.3,10.6-11.4c0-5.4-3-11.4-10.4-11.4
			C49.3,12.4,45,17,45,23.9z"/>
		<path class="st0" d="M99,32.8c0,2.9,0.2,9.1,0.2,9.5c0,1.1-0.3,1.4-1.6,1.4h-6.5c-1.2,0-1.6-0.2-1.6-1.4c0-0.4,0.2-6.6,0.2-9.5
			v-3.9c0-1.3-0.2-1.9-0.9-3l-6.7-10.4c-1.9-2.9-4-6.1-7-10.6c-0.3-0.4-0.4-0.7-0.4-0.9c0-0.3,0.4-0.4,1.1-0.4h7.8
			c1.4,0,1.7,0.2,2.4,1.4c1.6,2.9,3,5.2,4.6,7.8l3,4.9c0.4,0.6,0.6,0.8,0.9,0.8c0.3,0,0.5-0.3,0.9-0.8l3.2-5c1.6-2.5,3-4.7,4.6-7.6
			c0.7-1.2,1-1.4,2.4-1.4h7.4c0.8,0,1.1,0.1,1.1,0.4c0,0.2-0.2,0.5-0.4,0.9c-3,4.3-4.7,7-7,10.5l-6.8,10.4c-0.7,1.1-0.9,1.7-0.9,3
			V32.8z"/>
	</g>
</g>
</svg>
