<?xml version="1.0" encoding="utf-8"?>
<!-- Generator: Adobe Illustrator 27.3.1, SVG Export Plug-In . SVG Version: 6.00 Build 0)  -->
<svg version="1.1" id="レイヤー_1" xmlns="http://www.w3.org/2000/svg" xmlns:xlink="http://www.w3.org/1999/xlink" x="0px"
	 y="0px" viewBox="0 0 372.6 45.8" style="enable-background:new 0 0 372.6 45.8;" xml:space="preserve">
<style type="text/css">
	.st0{fill:#040000;}
</style>
<g>
	<path class="st0" d="M22,20.6v-7.4H11.5l-4.2,0.2v-1.8l4.2,0.2H22v-0.2c0-4.3,0-5.7-0.1-7.3c4,0.4,4.5,0.7,4.5,1.2
		c0,0.3-0.3,0.7-1.8,1.3v5.1h8.5c0.8-1,1.6-1.8,2.6-2.8c3.5,2.7,3.9,3.3,3.9,3.7c0,0.3-0.2,0.5-0.7,0.5H24.6v7.4h10.8
		c0.8-1,1.8-2.1,2.8-3c4,3.2,4.2,3.5,4.2,3.9c0,0.3-0.2,0.5-0.7,0.5H25.2c4.2,6.3,10.1,10.8,17.6,13.6l-0.2,0.8
		c-1.2,0-2.4,0.7-3.2,1.9c-6.6-3.7-11.5-8.5-14.8-15.3c0,14.1,0.2,17.1,0.2,18.2c0,0.6-1.3,1.3-2.3,1.3c-0.5,0-0.7-0.2-0.7-0.6
		c0-1.6,0.1-4.5,0.2-17.4c-3.1,4.9-7.3,9.1-12.3,12.2c-1.7,1.1-3.4,1.9-5.2,2.8L4,38.7c6.3-3.7,12.1-9.4,16.2-16.8H8.8l-4.2,0.2
		v-1.8l4.2,0.2H22z"/>
	<path class="st0" d="M52.6,18.5l-3.9,0.2v-1.8l3.9,0.2h4.8v-5.7H54l-3.5,0.2V9.9l3.5,0.2h3.5V8.5c0-2.1,0-2.8-0.1-4.1
		c3.8,0.4,4.2,0.7,4.2,1.1c0,0.3-0.2,0.7-1.5,1.1v3.5h1.3c0.6-0.7,1.2-1.4,1.8-2c2.6,2,2.9,2.5,2.9,2.9c0,0.2-0.3,0.5-0.7,0.5H60
		v5.7h2.2c2.6-3.7,4.8-7.6,6.3-11.5c3.3,1.3,3.6,1.6,3.6,2c0,0.4-0.3,0.7-1.8,0.9c-1.5,2.9-3.3,5.9-5.4,8.7h2.5
		c0.7-0.9,1.3-1.6,2.1-2.5c3.3,2.5,3.6,3,3.6,3.4c0,0.3-0.2,0.5-0.7,0.5h-8.6c-1.7,2.1-3.5,4.3-5.5,6.2h7.9c0.6-1.2,0.8-1.4,1.1-1.4
		c0.4,0,0.7,0.1,1.6,0.9c1.1,0.9,1.4,1.2,1.4,1.5c0,0.5-0.3,0.7-1.3,1.3v1.8c0,7.7,0.2,9.8,0.2,11c0,0.9-1,1.3-2.1,1.3
		c-0.5,0-0.7-0.2-0.7-0.7v-1h-9.6v1.5c0,0.9-1,1.4-2,1.4c-0.6,0-0.7-0.2-0.7-0.6c0-1.1,0.2-5.2,0.2-12.8v-0.5
		c-1.9,1.5-3.8,2.9-5.8,4.1l-0.5-0.7c2.1-1.6,4.2-3.5,6.3-5.4c0-1,0-2-0.1-2.9c0.9,0.3,1.6,0.6,2.1,0.8c1.7-1.8,3.3-3.8,4.7-5.7
		H52.6z M56.9,26.5v4.7h9.6v-5.2h-9.2L56.9,26.5z M56.9,38.1h9.6v-5.4h-9.6V38.1z M76.5,9.8v31c0,0.9-0.9,1.4-1.9,1.4
		c-0.7,0-0.9-0.2-0.9-0.7c0-1.5,0.2-5.4,0.2-28.1c0-2.4,0-4.7-0.1-7.2C76,7.2,77,7.6,77.4,8h4.8c0.7-1.4,1-1.6,1.4-1.6
		c0.4,0,0.8,0.2,1.9,1.2c0.9,0.9,1.2,1.3,1.2,1.7c0,0.5-0.4,0.8-1.7,1.1c-1.2,3.3-3.2,7.5-5.5,11.3c4.5,2.4,7.2,5.7,7.2,10
		c0,4.1-2.3,6.5-6.1,6.8c-0.2-1.2-1.1-1.9-3.1-2.6l0.1-0.8c1.2,0.2,2.2,0.3,3.3,0.3c1.7,0,3.1-1.3,3.1-4c0-3.3-2.1-6.8-5.7-9.2
		c1.7-4.2,3-8.7,4-12.6H77L76.5,9.8z"/>
	<path class="st0" d="M106.9,40c11.8-2.1,18.2-6.8,18.2-12.6c0-3.8-2.8-6.2-6.9-6.8c-2.1,3.6-4.7,6.8-8.5,10.1c0.3,1,0.7,1.5,0.9,2
		c0.1,0.2,0.2,0.5,0.2,0.8c0,0.5-0.3,1.2-0.9,1.2c-0.4,0-0.9-0.1-1.2-0.7c-0.3-0.5-0.7-1.2-0.9-1.9c-3.1,2.4-5.9,3.6-7.7,3.6
		c-2.1,0-3.4-1.3-3.4-3.3c0-3.8,4.1-8.4,10.3-11.2c0.2-2.5,0.3-3.7,0.5-6c-1,0.1-2.1,0.2-2.8,0.2c-3,0-5.6-0.7-6.6-4l0.7-0.4
		c1.1,1.8,2.8,2.3,5,2.3h0.4c1.1,0,2.4-0.2,3.6-0.3c0.1-1.4,0.5-4.1,0.5-4.3c0-0.5-0.2-0.8-0.4-0.9C106.6,7.2,106,7,105,7l0-0.6
		c0.8-0.3,1.4-0.5,2.2-0.5c0.8,0,1.6,0.4,3.1,1.6c0.9,0.7,1,1,1,1.4c0,0.4-0.2,0.6-0.6,1c-0.2,0.2-0.5,0.6-0.6,1.2
		c-0.2,0.6-0.3,1.1-0.4,1.5c4-1,6.1-1.8,6.9-2.4c0.3-0.2,0.6-0.4,1.5-0.4c0.8,0,1.6,0.5,1.6,1.1c0,0.4-0.1,0.7-0.6,1
		c-2.5,1.2-6.3,2.1-9.7,2.9c-0.3,1.9-0.5,3.6-0.7,5.6c1.9-0.7,4.4-1.2,7.1-1.4c0-0.2,0.1-0.4,0.1-0.7c0-0.2-0.1-0.5-0.3-0.7
		c-0.4-0.5-0.8-0.8-1.4-1l0.1-0.5c0.2,0,0.5,0,0.7,0c0.6,0,1.7,0.4,3.3,1.9c0.3,0.3,0.4,0.6,0.4,0.9c0,0.1,0,0.2,0,0.3
		c6.1,0.8,9.3,4.5,9.3,8.8c0,8.2-9.8,11.9-20.9,13.1L106.9,40z M106.7,23.8v-0.7c-4.9,2.4-8.1,5.9-8.1,8.4c0,1,0.8,1.9,1.6,1.9
		c1.9,0,3.9-0.9,7-3.1C106.8,28.3,106.7,25.9,106.7,23.8z M108.7,22.2v0.6c0,2.2,0.2,4.5,0.5,6.1c2.8-2.4,5-5.4,6.3-8.3
		C113,20.8,110.9,21.3,108.7,22.2z"/>
	<path class="st0" d="M154.1,6c0.8-0.3,1.5-0.4,2.4-0.4c0.9,0,2.6,0.8,3.6,1.6c0.4,0.3,0.6,0.7,0.6,1.1c0,0.3-0.2,0.6-0.5,0.9
		c-0.3,0.3-0.4,0.7-0.5,1.4c0,0.9-0.1,2.3-0.2,3.8c3.1-0.3,5.2-0.5,7.4-0.6c0.7,0,1.2-0.1,1.9-0.4c0.2-0.1,0.7-0.2,0.9-0.2
		c1.4,0,2.9,0.6,3.9,1.2c0.5,0.3,0.7,0.9,0.7,1.4c0,0.6-0.4,0.9-1.1,0.9c-0.5,0-1-0.1-2.7-0.4c-1.5-0.3-3.1-0.4-5.3-0.4
		c-1.6,0-3.5,0.1-5.7,0.2V18c0,2.4,0,4.9,0.1,8c0.2,1.2,0.2,2,0.2,2.8c0,8.4-6.5,12.2-13.6,13.6l-0.2-1c6.3-2,10.2-5.6,11.1-10.2
		c-0.6,0.5-1.5,0.7-2.6,0.7c-2.9,0-4.8-2.1-4.8-5c0-3,1.9-5.2,4.9-5.2c1,0,2.2,0.5,2.8,1.2c-0.1-2.3-0.1-4.1-0.1-6.2
		c-4,0.5-7.4,1.1-10.5,1.8c-2.3,0.5-3.1,0.7-3.8,1c-0.7,0.3-1,0.4-1.3,0.4c-0.4,0-0.8-0.1-1.3-0.4c-0.6-0.4-1.2-0.9-1.9-1.7
		c-0.5-0.5-0.7-1.2-0.7-1.6c0-0.2,0-0.6,0-0.9h0.6c0.2,0.6,0.9,1,1.2,1.3s1,0.4,1.9,0.4c0.6,0,1.4-0.1,2-0.2
		c4.9-0.7,8.8-1.3,13.6-1.9c0-1.6,0-3,0-4.5c-0.1-1.5-0.2-2.1-0.5-2.5c-0.4-0.6-0.9-0.9-2-0.9c-0.2,0-0.4,0-0.7,0L154.1,6z
		 M151.7,26.6c0,2.2,1.4,3.3,3,3.3c1.6,0,2.7-0.9,2.8-3.5c-0.2-2.3-1.3-3.4-2.8-3.4C152.9,23,151.7,24.3,151.7,26.6z"/>
	<path class="st0" d="M192.3,33.8c1,0.7,2.2,1.6,3.9,1.6c1.8,0,2.9-1.3,4.3-4.7c1.2-2.8,2.1-6.8,2.1-9.8c0-2-1.2-2.6-2.1-2.6
		c-0.7,0-2.1,0.2-3.4,0.5c-3.7,8-7.5,15-9.8,18.9c-0.4,0.6-0.9,0.9-1.4,0.9c-0.7,0-1.1-0.7-1.1-1.4c0-0.4,0.2-0.9,0.5-1.4
		c3.6-5.4,6.6-10.8,9.2-16.4c-1.7,0.4-3.1,0.8-4.8,1.4c-0.5,0.2-0.9,0.4-1.1,0.5c-0.2,0.1-0.5,0.2-0.8,0.2c-0.6,0-1.6-0.8-2.4-2.1
		c-0.3-0.5-0.5-1-0.5-1.6c0-0.2,0-0.4,0-0.7l0.6,0c0.5,1.2,1.2,1.6,2.1,1.6c0.6,0,1.4-0.1,2.4-0.2c1.7-0.2,3.6-0.6,5.3-0.9
		c0.9-2.1,1.5-3.7,1.9-5.1c0.1-0.4,0.2-0.9,0.2-1.3c0-1.2-0.9-1.7-3-1.9l0-0.7c0.8-0.3,1.6-0.4,2-0.4c0.9,0,2.5,0.5,3.8,1.5
		c0.7,0.5,0.9,0.9,0.9,1.3c0,0.3-0.3,0.7-0.7,1c-0.5,0.4-0.8,0.9-1.1,1.5c-0.5,1.1-0.9,2.1-1.6,3.5c1-0.1,1.9-0.2,2.6-0.2
		c2.2,0,4,1.4,4,4.9c0,3-0.8,7.7-2.7,11.6c-1.7,3.5-3.8,5.2-6.7,5.2c-0.7,0-1.2-0.5-1.2-1.1c0-0.5-0.2-0.7-0.5-1.2
		c-0.3-0.4-0.7-0.9-1.6-1.7L192.3,33.8z M209.1,29.8c2.4-0.7,4.1-1.3,5.5-1.9c0.3-0.1,0.6-0.4,0.6-0.7c0-0.3-0.1-0.7-0.5-1.2
		c-1.7-2.5-4.1-4.5-7.5-6.2l0.4-0.9c3.1,1,5.5,2.3,7.8,4.5c2.1,2,3.6,4.5,3.6,6.1c0,1.1-0.4,1.6-1,1.6c-0.3,0-0.8-0.2-1.4-0.8
		c-0.3-0.3-1-0.5-1.6-0.5h-0.2c-1.2,0-3,0.4-5.5,0.9L209.1,29.8z"/>
</g>
<g>
	<path class="st0" d="M239.9,35h-4.5l-1.7,4.9h1.7v0.4h-3.4v-0.4h1.1l5.7-15.5h1.8l5.7,15.5h1v0.4h-7.4v-0.4h1.6L239.9,35z
		 M235.6,34.5h4.1l-2-5.9L235.6,34.5z"/>
	<path class="st0" d="M250.4,36.5h0.3c0.8,2.7,2.2,3.5,4.1,3.5c1.7,0,2.3-0.6,2.3-1.5c0-1-1.1-1.2-2.8-1.7c-1.8-0.5-3.8-1.2-3.8-3.7
		c0-2.3,1.6-3.8,4-3.8c1,0,1.7,0.2,2.3,0.5c0.3,0.1,0.4,0.2,0.6,0.2c0.3,0,0.5-0.2,0.8-0.7h0.2v3.4h-0.3c-0.8-2.1-2-2.9-3.6-2.9
		c-1.5,0-2.1,0.6-2.1,1.3c0,1,1.4,1.3,2.8,1.7c1.8,0.5,3.8,1.2,3.8,3.9c0,2.6-1.7,3.9-4.2,3.9c-1.1,0-1.8-0.2-2.7-0.7
		c-0.1-0.1-0.3-0.2-0.4-0.2c-0.3,0-0.6,0.2-1,0.8h-0.3V36.5z"/>
	<path class="st0" d="M270,40.3l-0.2-1.6c-0.4,1.1-1.1,1.9-3.2,1.9c-2.1,0-3.5-1-3.5-3.8V30h-1.3v-0.4h5.5v7.7
		c0,1.9,0.3,2.2,0.8,2.2c0.9,0,1.6-0.9,1.6-2.6V30h-1v-0.4h5.2v10.3h1.2v0.4H270z"/>
	<path class="st0" d="M285.2,39.9h1l-2.5-5.2l-0.4,0.1v5.1h1v0.4h-6.5v-0.4h1.2V23.8h-1.3v-0.4h5.5v10.9l0.4-0.1l5.1-4.2h-2.1v-0.4
		h4.4V30h-1.6l-2.7,2.3l3.9,7.6h0.8v0.4h-6.3V39.9z"/>
	<path class="st0" d="M300.1,35v-1.7c0-2.9-0.2-3.6-1.1-3.6c-0.4,0-1.1,0.2-1.1,0.9c0,0.2,0,0.4,0.1,0.7h0.6c0.1,0.3,0.2,0.6,0.2,1
		c0,1.1-0.9,1.8-2,1.8c-1.4,0-1.9-0.8-1.9-1.9c0-1.9,1.6-2.8,4.7-2.8c3.5,0,4.7,1,4.7,4.3v4.6c0,0.9,0.3,1.2,0.7,1.2
		c0.4,0,0.8-0.4,0.9-2.3l0.3,0c-0.1,2.7-0.9,3.5-2.9,3.5c-1.8,0-2.8-0.6-3.1-1.7c-0.4,1.1-1,1.7-2.6,1.7c-1.6,0-3.3-0.5-3.3-2.7
		c0-2.3,2-2.8,5.2-2.8H300.1z M300.1,37.5v-2.1h-0.2c-0.9,0-1.4,0.7-1.4,2v0.4c0,1.6,0.2,1.8,0.6,1.8S300.1,38.9,300.1,37.5z"/>
	<path class="st0" d="M333.1,24.5V25h-1.2v14.9h1.2v0.4h-6.9v-0.4h1.2V25.8h-0.1L324,40.3h-2.8l-4-14.6h-0.1v14.1h1.2v0.4h-3.1v-0.4
		h1.2V25h-1.2v-0.4h6.1l3,11.6l2.7-11.6H333.1z"/>
	<path class="st0" d="M341.6,29.6v10.3h1.3v0.4h-6.7v-0.4h1.2V30h-1.3v-0.4H341.6z M339.5,23.8c1.4,0,2.2,0.7,2.2,2.1
		c0,1.2-0.7,2.1-2.3,2.1c-1.8,0-2.3-1.1-2.3-2.1C337.2,24.8,337.9,23.8,339.5,23.8z"/>
	<path class="st0" d="M346.7,30h-1.2v-0.4h1.2v-2.9l4.2-1v3.9h2.9V30h-2.9v7.6c0,1.3,0.2,2,1,2c1.1,0,1.8-1,2-2.5l0.4,0
		c-0.2,1.8-0.9,3.4-3.7,3.4c-2.2,0-3.8-0.7-3.8-3.4V30z"/>
	<path class="st0" d="M362.7,29.3c3.8,0,5.6,1.8,5.6,5.4c0,3.7-1.7,5.7-5.7,5.7c-3.8,0-5.7-2-5.7-5.5
		C356.8,31.3,359.1,29.3,362.7,29.3z M363.9,33.9c0-2.4-0.1-4.2-1.3-4.2c-1.4,0-1.4,1.8-1.4,4.3v1.8c0,2.6,0,4.3,1.4,4.3
		c1.3,0,1.4-1.3,1.4-4.3V33.9z"/>
</g>
</svg>
